<svg xmlns="http://www.w3.org/2000/svg" width="80" height="80" viewBox="0 0 80 80">
  <g id="connections_ic" transform="translate(0 0)">
    <rect id="Rectangle_1292" data-name="Rectangle 1292" width="80" height="80" transform="translate(0 0)" fill="none"/>
    <g id="handshake" transform="translate(0 15)">
      <path id="Path_388" data-name="Path 388" d="M40.015,136.867a4.077,4.077,0,0,0-3.218-.758,4.085,4.085,0,0,0-4.59-3.378,4.131,4.131,0,0,0-.779.186,4.082,4.082,0,0,0-5.481-2.627,4.089,4.089,0,0,0-6.73-1.631l-4.289-.285,2.629-21.357,4.711.32.08,0a1.172,1.172,0,0,0,1.042-.637l1.765-3.445a2.084,2.084,0,0,1,2.4-1.054l2.622.725a1.172,1.172,0,0,0,.625-2.259l-2.621-.725a4.437,4.437,0,0,0-5.112,2.243l-1.414,2.758-3.813-.259.09-.734a4.29,4.29,0,0,0-3.729-4.777L5.176,98.066a1.172,1.172,0,1,0-.286,2.326l9.029,1.112a1.941,1.941,0,0,1,1.69,2.164l-3.1,25.187a1.944,1.944,0,0,1-2.164,1.69l-9.029-1.112a1.172,1.172,0,0,0-.286,2.326l9.029,1.112a4.281,4.281,0,0,0,4.277-2.187l3.209.213a4.088,4.088,0,0,0,3.626,5.957,4.168,4.168,0,0,0,.568-.039l.036-.006c0,.012,0,.024,0,.036a4.084,4.084,0,0,0,4.044,3.527,4.125,4.125,0,0,0,.6-.046,4.079,4.079,0,0,0,4.047,3.566,4.117,4.117,0,0,0,.6-.045c0,.013,0,.026,0,.039a4.089,4.089,0,0,0,4.04,3.529,4.159,4.159,0,0,0,.568-.039,4.06,4.06,0,0,0,2.7-1.581l2.424-3.2A4.091,4.091,0,0,0,40.015,136.867Zm-18.6-2.374a1.744,1.744,0,0,1-1.628-2.78l.893-1.179a1.744,1.744,0,0,1,2.78,2.105l-.893,1.179A1.733,1.733,0,0,1,21.417,134.493Zm3.357,3.183a1.743,1.743,0,0,1-.337-2.443l.893-1.179h0l.788-1.041a1.744,1.744,0,0,1,2.78,2.105l-1.681,2.22A1.746,1.746,0,0,1,24.774,137.676Zm4.648,3.52a1.744,1.744,0,0,1-.338-2.442h0l1.681-2.22h0l.61-.805a1.744,1.744,0,0,1,2.781,2.1l-2.292,3.026h0A1.745,1.745,0,0,1,29.422,141.2Zm9.515-.018-2.424,3.2a1.744,1.744,0,1,1-2.78-2.105l2.291-3.025v0l.132-.174a1.743,1.743,0,1,1,2.78,2.105Z" transform="translate(0.001 -98.057)" fill="#fff"/>
      <path id="Path_389" data-name="Path 389" d="M213.876,130.454a1.172,1.172,0,0,0-1.306-1.02l-9.029,1.112a1.943,1.943,0,0,1-2.164-1.69l-.093-.752h0l-.021-.174-2.987-24.262a1.941,1.941,0,0,1,1.69-2.164l9.029-1.112a1.172,1.172,0,0,0-.286-2.326l-9.029,1.112a4.291,4.291,0,0,0-3.76,4.364l-2.277.28-7.051-3.968a5.6,5.6,0,0,0-3.273-.7h-.007l-2.122.2a1.172,1.172,0,0,0,.216,2.334l2.128-.2a3.262,3.262,0,0,1,1.908.407l7.31,4.114a1.172,1.172,0,0,0,.789.185l2.645-.325,1.94,15.757.671,5.449-4.218,0a1.171,1.171,0,0,0-.765.285l-.326.254-10.59-9.127a14.216,14.216,0,0,0,6.884-5.028,1.172,1.172,0,1,0-1.817-1.48c-2.411,2.961-4.946,4.485-7.535,4.53-3.771.071-6.542-3.056-6.568-3.085a1.172,1.172,0,0,0-1.816.052l-3.148,4.1a6.1,6.1,0,0,1-7.031,2l-.336-.127a.783.783,0,0,1-.4-1.125l8.216-14.142a3.282,3.282,0,0,1,2.531-1.616l4.865-.45a1.172,1.172,0,0,0-.216-2.334l-4.865.45a5.63,5.63,0,0,0-4.342,2.773L159.1,117.148a3.126,3.126,0,0,0,1.6,4.5l.336.127a8.538,8.538,0,0,0,3.02.555,8.429,8.429,0,0,0,6.7-3.321l2.349-3.057a11.573,11.573,0,0,0,6.6,2.889l15.3,13.19a1.36,1.36,0,0,1,.143,1.917l-.6.692a2.085,2.085,0,0,1-2.936.215,1.171,1.171,0,0,0-.153-.11l-3.973-3.426a1.172,1.172,0,1,0-1.53,1.775l3.228,2.784-1.473,1.709a2.076,2.076,0,0,1-2.935.217l-.017-.014-3.691-3.183a1.172,1.172,0,0,0-1.53,1.775l2.821,2.432-1.481,1.72a2.084,2.084,0,0,1-1.823.709,1.172,1.172,0,1,0-.274,2.328,4.426,4.426,0,0,0,3.872-1.507l1.584-1.839a4.422,4.422,0,0,0,5.25-1.109l1.586-1.841a4.435,4.435,0,0,0,5.249-1.106l.6-.693a3.7,3.7,0,0,0-.388-5.223l-.962-.829,3.516,0a4.282,4.282,0,0,0,4.732,3.452l9.029-1.112A1.172,1.172,0,0,0,213.876,130.454Z" transform="translate(-133.884 -98.058)" fill="#fff"/>
      <path id="Path_390" data-name="Path 390" d="M445.441,251.249a3.437,3.437,0,1,0,3.437,3.437A3.441,3.441,0,0,0,445.441,251.249Zm0,4.531a1.094,1.094,0,1,1,1.093-1.094A1.095,1.095,0,0,1,445.441,255.78Z" transform="translate(-372.941 -227.313)" fill="#fff"/>
      <path id="Path_391" data-name="Path 391" d="M32.067,254.686a3.437,3.437,0,1,0-3.437,3.437A3.441,3.441,0,0,0,32.067,254.686Zm-4.531,0a1.093,1.093,0,1,1,1.093,1.094A1.095,1.095,0,0,1,27.537,254.686Z" transform="translate(-21.256 -227.313)" fill="#fff"/>
    </g>
  </g>
</svg>
