<svg xmlns="http://www.w3.org/2000/svg" width="79.457" height="80" viewBox="0 0 79.457 80">
  <g id="experience_ic" transform="translate(-4641 -2777)">
    <rect id="Rectangle_1294" data-name="Rectangle 1294" width="79.006" height="79.006" transform="translate(4641 2777)" fill="none"/>
    <g id="experience" transform="translate(4645.23 2777.283)">
      <path id="Path_401" data-name="Path 401" d="M148.863,61.2l-1.348.489a6.35,6.35,0,0,0-4.051,4.751l-.457,2.4a4.043,4.043,0,0,0,3.971,4.8h11.685a4.044,4.044,0,0,0,3.981-4.755l-.427-2.384a6.337,6.337,0,0,0-4.065-4.827l-1.429-.518V59.051a1.161,1.161,0,0,0-.014-.174,5.73,5.73,0,0,0,1.64-3.99V51.749a5.556,5.556,0,0,0-11.113,0v3.236a5.542,5.542,0,0,0,1.637,3.921,1.153,1.153,0,0,0-.01.144Zm11.055,5.712.427,2.385a1.708,1.708,0,0,1-1.682,2.008H146.977a1.707,1.707,0,0,1-1.677-2.029l.457-2.4a4,4,0,0,1,2.553-2.995l.883-.32c.022.023.044.046.068.067a5.386,5.386,0,0,0,7.061,0,1.153,1.153,0,0,0,.1-.1l.931.338A3.993,3.993,0,0,1,159.918,66.913ZM149.571,51.749a3.219,3.219,0,0,1,6.337-.8c-.15.073-.3.143-.462.206a3.882,3.882,0,0,1-2.927.266,1.168,1.168,0,0,0-1.341,1.912,3.867,3.867,0,0,0,2.228.6,7.77,7.77,0,0,0,2.607-.5v1.452a3.381,3.381,0,0,1-1.013,2.4,3.263,3.263,0,0,1-1.006.675q-.039.015-.076.032a3.014,3.014,0,0,1-1.19.213,3.237,3.237,0,0,1-3.157-3.22Zm3.113,8.791h.107a5.418,5.418,0,0,0,1.6-.24v1.868a3.049,3.049,0,0,1-3.189,0V60.3A5.481,5.481,0,0,0,152.684,60.54Z" transform="translate(-122.923 -39.001)" fill="#fff"/>
      <path id="Path_402" data-name="Path 402" d="M81.932,338.239h36.363a1.168,1.168,0,1,0,0-2.335H81.932a1.168,1.168,0,0,0,0,2.335Z" transform="translate(-70.435 -283.605)" fill="#fff"/>
      <path id="Path_403" data-name="Path 403" d="M81.932,378.68h36.363a1.168,1.168,0,1,0,0-2.335H81.932a1.168,1.168,0,1,0,0,2.335Z" transform="translate(-70.435 -317.75)" fill="#fff"/>
      <path id="Path_404" data-name="Path 404" d="M81.932,419.119h36.363a1.168,1.168,0,1,0,0-2.335H81.932a1.168,1.168,0,1,0,0,2.335Z" transform="translate(-70.435 -351.892)" fill="#fff"/>
      <path id="Path_405" data-name="Path 405" d="M81.932,459.56h36.363a1.168,1.168,0,1,0,0-2.335H81.932a1.168,1.168,0,0,0,0,2.335Z" transform="translate(-70.435 -386.037)" fill="#fff"/>
      <path id="Path_406" data-name="Path 406" d="M80.764,256.192a1.167,1.167,0,0,0,1.168,1.168h36.363a1.168,1.168,0,1,0,0-2.335H81.932A1.168,1.168,0,0,0,80.764,256.192Z" transform="translate(-70.435 -215.318)" fill="#fff"/>
      <path id="Path_407" data-name="Path 407" d="M81.932,297.8h36.363a1.168,1.168,0,1,0,0-2.335H81.932a1.168,1.168,0,1,0,0,2.335Z" transform="translate(-70.435 -249.462)" fill="#fff"/>
      <path id="Path_408" data-name="Path 408" d="M54.213,338.22a1.172,1.172,0,1,0-1.172-1.172A1.172,1.172,0,0,0,54.213,338.22Z" transform="translate(-47.028 -283.582)" fill="#fff"/>
      <path id="Path_409" data-name="Path 409" d="M54.213,257.34a1.172,1.172,0,1,0-1.172-1.172A1.172,1.172,0,0,0,54.213,257.34Z" transform="translate(-47.028 -215.294)" fill="#fff"/>
      <path id="Path_410" data-name="Path 410" d="M54.213,297.78a1.172,1.172,0,1,0-1.172-1.172A1.172,1.172,0,0,0,54.213,297.78Z" transform="translate(-47.028 -249.438)" fill="#fff"/>
      <path id="Path_411" data-name="Path 411" d="M54.213,378.66a1.172,1.172,0,1,0-1.172-1.172A1.172,1.172,0,0,0,54.213,378.66Z" transform="translate(-47.028 -317.725)" fill="#fff"/>
      <path id="Path_412" data-name="Path 412" d="M54.213,419.1a1.172,1.172,0,1,0-1.172-1.172A1.172,1.172,0,0,0,54.213,419.1Z" transform="translate(-47.028 -351.869)" fill="#fff"/>
      <path id="Path_413" data-name="Path 413" d="M54.213,459.541a1.172,1.172,0,1,0-1.172-1.172A1.172,1.172,0,0,0,54.213,459.541Z" transform="translate(-47.028 -386.013)" fill="#fff"/>
      <path id="Path_414" data-name="Path 414" d="M87.782,18.391a8.073,8.073,0,0,1-1.132-1.679,8.511,8.511,0,0,1-.421-2.085,6.512,6.512,0,0,0-1.449-4.017,6.514,6.514,0,0,0-4.017-1.449,8.514,8.514,0,0,1-2.085-.421A8.066,8.066,0,0,1,77,7.61a8.8,8.8,0,0,0-2.79-1.684V5.573A5.579,5.579,0,0,0,68.636,0H19.99a5.58,5.58,0,0,0-5.574,5.573V10.08a1.168,1.168,0,0,0,2.335,0V5.573A3.242,3.242,0,0,1,19.99,2.335H68.636a3.242,3.242,0,0,1,3.238,3.238v.353a8.8,8.8,0,0,0-2.79,1.683,8.075,8.075,0,0,1-1.679,1.132,8.528,8.528,0,0,1-2.085.421A6.514,6.514,0,0,0,61.3,10.611a6.512,6.512,0,0,0-1.449,4.017,8.512,8.512,0,0,1-.421,2.085A8.066,8.066,0,0,1,58.3,18.391a6.552,6.552,0,0,0-1.861,3.957A6.553,6.553,0,0,0,58.3,26.306a8.073,8.073,0,0,1,1.132,1.679,8.51,8.51,0,0,1,.421,2.085A6.512,6.512,0,0,0,61.3,34.086a6.513,6.513,0,0,0,4.017,1.449c.409.051.806.1,1.173.169V53.354a1.793,1.793,0,0,0,2.9,1.412l2.482-1.944V74.143a3.242,3.242,0,0,1-3.238,3.238H19.99a3.242,3.242,0,0,1-3.238-3.238V15.222a1.168,1.168,0,0,0-2.335,0v58.92a5.58,5.58,0,0,0,5.574,5.573H68.636a5.58,5.58,0,0,0,5.574-5.573V52.822l2.482,1.943a1.794,1.794,0,0,0,2.9-1.412V40.323a1.168,1.168,0,0,0-2.335,0V52.242l-3.1-2.43a1.8,1.8,0,0,0-2.217,0l-3.108,2.433V36.885l.256.2a6.553,6.553,0,0,0,3.958,1.861A6.555,6.555,0,0,0,77,37.087a8.077,8.077,0,0,1,1.679-1.132,8.528,8.528,0,0,1,2.085-.421,6.514,6.514,0,0,0,4.017-1.448,6.514,6.514,0,0,0,1.449-4.017,8.518,8.518,0,0,1,.421-2.085,8.066,8.066,0,0,1,1.132-1.679,6.552,6.552,0,0,0,1.861-3.957,6.553,6.553,0,0,0-1.861-3.957ZM85.95,24.858a9.783,9.783,0,0,0-1.457,2.232,10.27,10.27,0,0,0-.581,2.693,4.831,4.831,0,0,1-.782,2.652,4.832,4.832,0,0,1-2.652.782,10.273,10.273,0,0,0-2.693.581,9.782,9.782,0,0,0-2.232,1.456,4.818,4.818,0,0,1-2.51,1.358,4.817,4.817,0,0,1-2.51-1.358A9.787,9.787,0,0,0,68.3,33.8c-.056-.023-.252-.1-.294-.111a11.616,11.616,0,0,0-2.4-.47,4.832,4.832,0,0,1-2.652-.782,4.831,4.831,0,0,1-.782-2.651,10.272,10.272,0,0,0-.581-2.693,9.788,9.788,0,0,0-1.457-2.232,4.817,4.817,0,0,1-1.358-2.509,4.816,4.816,0,0,1,1.358-2.509,9.783,9.783,0,0,0,1.457-2.232,10.263,10.263,0,0,0,.581-2.693,4.831,4.831,0,0,1,.782-2.652,4.833,4.833,0,0,1,2.652-.782A10.273,10.273,0,0,0,68.3,10.9a9.782,9.782,0,0,0,2.232-1.456,4.832,4.832,0,0,1,2.505-1.358h.009a4.831,4.831,0,0,1,2.506,1.358A9.787,9.787,0,0,0,77.784,10.9a10.267,10.267,0,0,0,2.693.581,4.831,4.831,0,0,1,2.652.782,4.83,4.83,0,0,1,.782,2.651,10.27,10.27,0,0,0,.581,2.693,9.787,9.787,0,0,0,1.457,2.232,4.817,4.817,0,0,1,1.358,2.509,4.816,4.816,0,0,1-1.358,2.509Z" transform="translate(-14.416 0)" fill="#fff"/>
      <path id="Path_415" data-name="Path 415" d="M351.977,91.451,348,90.326l-2.3-3.431a1.475,1.475,0,0,0-2.451,0l-2.3,3.431-3.974,1.124a1.475,1.475,0,0,0-.757,2.331l2.554,3.245-.158,4.125a1.474,1.474,0,0,0,1.983,1.441l3.876-1.426,3.875,1.426a1.475,1.475,0,0,0,1.983-1.441l-.158-4.126,2.554-3.245a1.475,1.475,0,0,0-.757-2.331Zm-3.828,4.381a1.478,1.478,0,0,0-.314.968l.121,3.158-2.966-1.091a1.477,1.477,0,0,0-1.019,0L341,99.958l.121-3.159a1.479,1.479,0,0,0-.315-.968l-1.954-2.483,3.042-.86a1.477,1.477,0,0,0,.823-.6l1.758-2.626,1.758,2.626a1.479,1.479,0,0,0,.824.6l3.041.86Z" transform="translate(-285.853 -72.813)" fill="#fff"/>
    </g>
  </g>
</svg>
