<svg id="plus" xmlns="http://www.w3.org/2000/svg" width="34" height="34" viewBox="0 0 34 34">
  <g id="Ellipse_696" data-name="Ellipse 696" fill="none">
    <path d="M17,0A17,17,0,1,1,0,17,17,17,0,0,1,17,0Z" stroke="none"/>
    <path d="M 17 3 C 13.26045989990234 3 9.744760513305664 4.456249237060547 7.100509643554688 7.100509643554688 C 4.456249237060547 9.744760513305664 3 13.26045989990234 3 17 C 3 20.73954010009766 4.456249237060547 24.25524139404297 7.100509643554688 26.89949035644531 C 9.744760513305664 29.54375076293945 13.26045989990234 31 17 31 C 20.73954010009766 31 24.25524139404297 29.54375076293945 26.89949035644531 26.89949035644531 C 29.54375076293945 24.25524139404297 31 20.73954010009766 31 17 C 31 13.26045989990234 29.54375076293945 9.744760513305664 26.89949035644531 7.100509643554688 C 24.25524139404297 4.456249237060547 20.73954010009766 3 17 3 M 17 0 C 26.38883972167969 0 34 7.611160278320313 34 17 C 34 26.38883972167969 26.38883972167969 34 17 34 C 7.611160278320313 34 0 26.38883972167969 0 17 C 0 7.611160278320313 7.611160278320313 0 17 0 Z" stroke="none" fill="#fff"/>
  </g>
  <path id="Rectangle_669" data-name="Rectangle 669" d="M7,16.31v-7H0V7H7V0H9.311V7h7V9.31h-7v7Z" transform="translate(9.34 9.34)" fill="#fff"/>
</svg>
