<svg id="SecureGroup_Blue_Dark" xmlns="http://www.w3.org/2000/svg" width="276" height="40.837" viewBox="0 0 276 40.837">
  <path id="Path_423" data-name="Path 423" d="M251.406,59.038a2.224,2.224,0,0,0,2.206-2.23V54.062a.785.785,0,0,0-.54-.7l-11.43-3.8A2.547,2.547,0,0,1,240,47.3v-3.52c0-2.793,2.253-4.483,5.069-4.483h10.608v2.159a.406.406,0,0,1-.352.4H245.069a2.124,2.124,0,0,0-2.3,2.042v2.887a.8.8,0,0,0,.54.751l11.453,3.779a2.516,2.516,0,0,1,1.549,2.277v3.168A4.738,4.738,0,0,1,251.43,61.6H240V59.437a.366.366,0,0,1,.352-.376h.023Z" transform="translate(-183.673 -30.077)" fill="#1d1e22"/>
  <path id="Path_424" data-name="Path 424" d="M325.816,44.035v5.633a1.9,1.9,0,0,1,1.455-.587h9.81V51.24a.371.371,0,0,1-.375.376h-10.89v5.093a2.254,2.254,0,0,0,2.253,2.253h9.646a.407.407,0,0,1,.4.376V61.5H328.069A5.058,5.058,0,0,1,323,56.45h0v-12.2a5.058,5.058,0,0,1,5.069-5.046h10.045v2.159a.429.429,0,0,1-.4.4h-9.646a2.259,2.259,0,0,0-2.253,2.277Z" transform="translate(-247.194 -30)" fill="#1d1e22"/>
  <path id="Path_425" data-name="Path 425" d="M399.1,44.346a5.053,5.053,0,0,1,5.046-5.046H414v2.159a.411.411,0,0,1-.4.4h-9.458a2.254,2.254,0,0,0-2.253,2.253h0V56.785a2.254,2.254,0,0,0,2.253,2.253h9.482a.407.407,0,0,1,.4.376v2.159h-9.834a5.073,5.073,0,0,1-5.069-5.046V44.346Z" transform="translate(-305.434 -30.077)" fill="#1d1e22"/>
  <path id="Path_426" data-name="Path 426" d="M476.6,56.667V39.3h2.417a.407.407,0,0,1,.4.376V56.9a2.254,2.254,0,0,0,2.253,2.253h6.736a2.289,2.289,0,0,0,2.277-2.253h0V39.676a.377.377,0,0,1,.4-.376H493.5V56.667a5.073,5.073,0,0,1-5.069,5.046h-6.736a5.078,5.078,0,0,1-5.093-5.046Z" transform="translate(-364.745 -30.077)" fill="#1d1e22"/>
  <path id="Path_427" data-name="Path 427" d="M566.793,61.2a.377.377,0,0,1-.4.376H564V41.013a1.713,1.713,0,0,1,1.737-1.713H575.1c2.793,0,5.069,1.76,5.069,4.788v2.887c0,2.605-1.878,4.037-4.06,4.6L580.875,61.6h-2.582a.724.724,0,0,1-.54-.352l-4.53-9.529H568.53c-.845,0-1.455-.235-1.666-.8h-.047V61.2Zm8.285-12.04a2.289,2.289,0,0,0,2.277-2.253h0V44.111a2.254,2.254,0,0,0-2.253-2.253H567.38a.571.571,0,0,0-.563.563h0v6.172a.571.571,0,0,0,.563.563h7.7Z" transform="translate(-431.633 -30.077)" fill="#1d1e22"/>
  <path id="Path_428" data-name="Path 428" d="M648.893,44.035v5.633a1.9,1.9,0,0,1,1.455-.587h9.81V51.24a.377.377,0,0,1-.4.376H648.893v5.093a2.254,2.254,0,0,0,2.253,2.253h9.669a.407.407,0,0,1,.4.376V61.5H651.169a5.053,5.053,0,0,1-5.069-5.022V44.246a5.053,5.053,0,0,1,5.046-5.046h10.068v2.159a.411.411,0,0,1-.4.4h-9.646a2.264,2.264,0,0,0-2.276,2.277Z" transform="translate(-494.464 -30)" fill="#1d1e22"/>
  <path id="Path_429" data-name="Path 429" d="M766.3,56.285V43.846a5.053,5.053,0,0,1,5.046-5.046H781.6v2.159a.383.383,0,0,1-.422.376h-9.81a2.289,2.289,0,0,0-2.277,2.253h0V56.5a2.254,2.254,0,0,0,2.253,2.253h6.172a2.512,2.512,0,0,0,2.535-2.253V51.145h-5.421a.407.407,0,0,1-.4-.376V48.61h7.956a.407.407,0,0,1,.4.376v7.6c0,3.145-2.277,4.741-5.069,4.741h-6.172a5.053,5.053,0,0,1-5.046-5.046Z" transform="translate(-586.454 -29.694)" fill="#1d1e22"/>
  <path id="Path_430" data-name="Path 430" d="M853.516,61.2a.377.377,0,0,1-.4.376H850.7V41.013a1.713,1.713,0,0,1,1.737-1.713H861.8c2.793,0,5.069,1.76,5.069,4.788v2.887c0,2.605-1.878,4.037-4.06,4.6L867.575,61.6h-2.582a.724.724,0,0,1-.54-.352l-4.53-9.552H855.23c-.821,0-1.455-.235-1.666-.8h-.047Zm8.285-12.04a2.289,2.289,0,0,0,2.277-2.253h0V44.111a2.254,2.254,0,0,0-2.253-2.253H854.1a.571.571,0,0,0-.563.563h0v6.172a.571.571,0,0,0,.563.563h7.7Z" transform="translate(-651.046 -30.077)" fill="#1d1e22"/>
  <path id="Path_431" data-name="Path 431" d="M932.7,56.285V43.846a5.053,5.053,0,0,1,5.046-5.046h6.759a5.073,5.073,0,0,1,5.069,5.046V56.285a5.073,5.073,0,0,1-5.069,5.046H937.77a5.028,5.028,0,0,1-5.069-5.046Zm2.793-12.673V56.519a2.254,2.254,0,0,0,2.253,2.253h6.759a2.289,2.289,0,0,0,2.277-2.253h0V43.611a2.254,2.254,0,0,0-2.253-2.253h-6.736a2.249,2.249,0,0,0-2.3,2.253Z" transform="translate(-713.801 -29.694)" fill="#1d1e22"/>
  <path id="Path_432" data-name="Path 432" d="M1019.9,56.667V39.3h2.417a.407.407,0,0,1,.4.376V56.9a2.254,2.254,0,0,0,2.253,2.253h6.736a2.289,2.289,0,0,0,2.277-2.253h0V39.676a.391.391,0,0,1,.4-.376h2.417V56.667a5.073,5.073,0,0,1-5.069,5.046h-6.736a5.063,5.063,0,0,1-5.093-5.046Z" transform="translate(-780.536 -30.077)" fill="#1d1e22"/>
  <path id="Path_433" data-name="Path 433" d="M1123.347,44.346V47.28a5.073,5.073,0,0,1-5.069,5.046h-6.525a1.63,1.63,0,0,1-1.737-1.2V61.2a.377.377,0,0,1-.4.376H1107.2V41.013a1.713,1.713,0,0,1,1.737-1.713h9.341A5.073,5.073,0,0,1,1123.347,44.346Zm-2.793-.235a2.254,2.254,0,0,0-2.253-2.253h-7.7a.571.571,0,0,0-.563.563h0v6.806a.571.571,0,0,0,.563.563h7.7a2.289,2.289,0,0,0,2.276-2.253h0l-.023-3.427Z" transform="translate(-847.347 -30.077)" fill="#1d1e22"/>
  <g id="Group_8715" data-name="Group 8715">
    <path id="Path_434" data-name="Path 434" d="M94.531,126l-.868,3.708a3.931,3.931,0,0,1-2.722,2.816L72,137.265l.868-3.708a3.931,3.931,0,0,1,2.722-2.816Z" transform="translate(-55.102 -96.429)" fill="#4a76fd"/>
    <path id="Path_435" data-name="Path 435" d="M22.531,96l-.868,3.732a3.89,3.89,0,0,1-2.722,2.816L0,107.265l.868-3.708a3.92,3.92,0,0,1,2.746-2.816Z" transform="translate(0 -73.469)" fill="#4a76fd"/>
    <path id="Path_436" data-name="Path 436" d="M22.531,0l-.868,3.708A3.89,3.89,0,0,1,18.94,6.524L0,11.265.868,7.557A3.92,3.92,0,0,1,3.614,4.741Z" fill="#4a76fd"/>
    <path id="Path_437" data-name="Path 437" d="M131.265,78l-.868,3.708a3.931,3.931,0,0,1-2.722,2.816L120,86.449l.868-3.732a3.89,3.89,0,0,1,2.722-2.816Z" transform="translate(-91.837 -59.694)" fill="#4a76fd"/>
    <path id="Path_438" data-name="Path 438" d="M39.429,30l-.868,3.708a3.931,3.931,0,0,1-2.722,2.816L0,45.49l.868-3.708a3.92,3.92,0,0,1,2.746-2.816Z" transform="translate(0 -22.959)" fill="#4a76fd"/>
  </g>
</svg>
