<svg xmlns="http://www.w3.org/2000/svg" width="80" height="80" viewBox="0 0 80 80">
  <g id="vision_ic" transform="translate(-4624 -2628)">
    <rect id="Rectangle_1293" data-name="Rectangle 1293" width="80" height="80" transform="translate(4624 2628)" fill="none"/>
    <g id="analysis" transform="translate(4628 2625.442)">
      <path id="Path_392" data-name="Path 392" d="M128.1,90.184a3.566,3.566,0,1,0-2.846-1.423L119.4,96.939a3.552,3.552,0,0,0-3.533.778l-3.9-2.213a3.562,3.562,0,1,0-6.963,0l-3.9,2.213a3.556,3.556,0,1,0,1.057,1.857l3.9-2.213a3.553,3.553,0,0,0,4.849,0l3.9,2.213a3.562,3.562,0,1,0,6.327-1.39l5.852-8.177A3.551,3.551,0,0,0,128.1,90.184Zm0-4.986a1.425,1.425,0,1,1-1.425,1.425A1.426,1.426,0,0,1,128.1,85.2Zm-29.419,16.55a1.425,1.425,0,1,1,1.425-1.425A1.426,1.426,0,0,1,98.679,101.748Zm9.806-5.568a1.425,1.425,0,1,1,1.425-1.425A1.426,1.426,0,0,1,108.486,96.179Zm9.806,5.568a1.425,1.425,0,1,1,1.425-1.425A1.426,1.426,0,0,1,118.292,101.748Z" transform="translate(-81.567 -65.604)" fill="#fff"/>
      <path id="Path_393" data-name="Path 393" d="M59.662,88.1H3.022a.886.886,0,0,1-.885-.885V43.138a.886.886,0,0,1,.885-.885H8.059a1.068,1.068,0,0,0,0-2.137H3.022A3.026,3.026,0,0,0,0,43.138v44.08a3.026,3.026,0,0,0,3.022,3.022h7.367v2.351a2.432,2.432,0,0,0,2.429,2.429h10.7l-5.035,9.829a1.068,1.068,0,1,0,1.9.974l5.534-10.8H37.728l5.534,10.8a1.068,1.068,0,1,0,1.9-.974l-5.035-9.829h10.7a2.432,2.432,0,0,0,2.429-2.429V90.241h6.409a1.068,1.068,0,1,0,0-2.137Zm-8.546,4.488a.293.293,0,0,1-.292.292H12.819a.293.293,0,0,1-.292-.292V90.241h38.59Z" transform="translate(0 -28.777)" fill="#fff"/>
      <path id="Path_394" data-name="Path 394" d="M80.139,13.476h48.287a.886.886,0,0,1,.885.885V24.52a1.068,1.068,0,0,0,2.137,0V14.361a3.026,3.026,0,0,0-3.022-3.022H105.558v-2.1a2.684,2.684,0,0,0-2.681-2.681h-6.5A2.684,2.684,0,0,0,93.7,9.239v2.1H80.139a1.068,1.068,0,0,0,0,2.137Zm15.7-4.237a.544.544,0,0,1,.544-.544h6.5a.544.544,0,0,1,.544.544v2.1H95.835v-2.1Z" transform="translate(-67.806)" fill="#fff"/>
      <path id="Path_395" data-name="Path 395" d="M98.47,267.576a1.068,1.068,0,0,0-1.068,1.068v9.441a1.068,1.068,0,0,0,1.068,1.068h4.335a1.068,1.068,0,0,0,1.068-1.068v-9.441a1.068,1.068,0,0,0-1.068-1.068Zm3.266,9.441h-2.2v-7.3h2.2Z" transform="translate(-83.526 -223.833)" fill="#fff"/>
      <path id="Path_396" data-name="Path 396" d="M167.305,229.248a1.068,1.068,0,0,0-1.068,1.068v14.9a1.068,1.068,0,0,0,1.068,1.068h4.335a1.068,1.068,0,0,0,1.068-1.068v-14.9a1.068,1.068,0,0,0-1.068-1.068Zm3.266,14.9h-2.2V231.385h2.2Z" transform="translate(-142.555 -190.965)" fill="#fff"/>
      <path id="Path_397" data-name="Path 397" d="M236.141,267.576a1.068,1.068,0,0,0-1.068,1.068v9.441a1.068,1.068,0,0,0,1.068,1.068h4.335a1.068,1.068,0,0,0,1.068-1.068v-9.441a1.068,1.068,0,0,0-1.068-1.068Zm3.266,9.441h-2.2v-7.3h2.2Z" transform="translate(-201.584 -223.833)" fill="#fff"/>
      <path id="Path_398" data-name="Path 398" d="M304.977,311.832a1.068,1.068,0,0,0-1.068,1.068v3.137a1.068,1.068,0,0,0,1.068,1.068h4.335a1.068,1.068,0,1,0,0-2.137h-3.266V312.9A1.068,1.068,0,0,0,304.977,311.832Z" transform="translate(-260.614 -261.784)" fill="#fff"/>
      <path id="Path_399" data-name="Path 399" d="M325.826,178.6l-6.13-10.617a13.972,13.972,0,1,0-13.816,3.943,14.041,14.041,0,0,0,3.637.482,13.789,13.789,0,0,0,3.145-.363l6.128,10.617a4.062,4.062,0,1,0,7.035-4.062Zm-19.392-8.738a11.828,11.828,0,1,1,8.975-1.182A11.751,11.751,0,0,1,306.434,169.862ZM323.271,182.3a1.927,1.927,0,0,1-2.629-.7l-5.9-10.215a14.025,14.025,0,0,0,3.332-1.926l5.9,10.215a1.923,1.923,0,0,1-.7,2.629Z" transform="translate(-253.431 -118.269)" fill="#fff"/>
      <path id="Path_400" data-name="Path 400" d="M342.137,184.4a10.111,10.111,0,0,0-.506-7.325,1.068,1.068,0,1,0-1.933.911,8,8,0,1,1-2.413-2.981,1.068,1.068,0,1,0,1.289-1.7,10.146,10.146,0,1,0,3.562,11.1Z" transform="translate(-276.385 -141.223)" fill="#fff"/>
    </g>
  </g>
</svg>
